<?xml version="1.0" encoding="utf-8" standalone="no"?>
<!DOCTYPE svg PUBLIC "-//W3C//DTD SVG 1.1//EN"
  "http://www.w3.org/Graphics/SVG/1.1/DTD/svg11.dtd">
<!-- Created with matplotlib (http://matplotlib.org/) -->
<svg height="565pt" version="1.1" viewBox="0 0 960 565" width="960pt" xmlns="http://www.w3.org/2000/svg" xmlns:xlink="http://www.w3.org/1999/xlink">
 <defs>
  <style type="text/css">
*{stroke-linecap:butt;stroke-linejoin:round;}
  </style>
 </defs>
 <g id="figure_1">
  <g id="patch_1">
   <path d="M 0 565.212969 
L 960.458073 565.212969 
L 960.458073 0 
L 0 0 
z
" style="fill:#ffffff;"/>
  </g>
  <g id="axes_1">
   <g id="patch_2">
    <path d="M 51.377969 550.22 
L 299.014635 550.22 
L 299.014635 37.44 
L 51.377969 37.44 
z
" style="fill:#eaeaf2;"/>
   </g>
   <g id="matplotlib.axis_1">
    <g id="xtick_1">
     <g id="line2d_1">
      <path clip-path="url(#p6a0732dcb0)" d="M 175.196302 550.22 
L 175.196302 37.44 
" style="fill:none;stroke:#ffffff;stroke-linecap:round;"/>
     </g>
     <g id="line2d_2"/>
    </g>
   </g>
   <g id="matplotlib.axis_2">
    <g id="ytick_1">
     <g id="line2d_3">
      <path clip-path="url(#p6a0732dcb0)" d="M 51.377969 550.22 
L 299.014635 550.22 
" style="fill:none;stroke:#ffffff;stroke-linecap:round;"/>
     </g>
     <g id="line2d_4"/>
     <g id="text_1">
      <!-- 0.0 -->
      <defs>
       <path d="M 4.15625 35.296875 
Q 4.15625 48 6.765625 55.734375 
Q 9.375 63.484375 14.515625 67.671875 
Q 19.671875 71.875 27.484375 71.875 
Q 33.25 71.875 37.59375 69.546875 
Q 41.9375 67.234375 44.765625 62.859375 
Q 47.609375 58.5 49.21875 52.21875 
Q 50.828125 45.953125 50.828125 35.296875 
Q 50.828125 22.703125 48.234375 14.96875 
Q 45.65625 7.234375 40.5 3 
Q 35.359375 -1.21875 27.484375 -1.21875 
Q 17.140625 -1.21875 11.234375 6.203125 
Q 4.15625 15.140625 4.15625 35.296875 
z
M 13.1875 35.296875 
Q 13.1875 17.671875 17.3125 11.828125 
Q 21.4375 6 27.484375 6 
Q 33.546875 6 37.671875 11.859375 
Q 41.796875 17.71875 41.796875 35.296875 
Q 41.796875 52.984375 37.671875 58.78125 
Q 33.546875 64.59375 27.390625 64.59375 
Q 21.34375 64.59375 17.71875 59.46875 
Q 13.1875 52.9375 13.1875 35.296875 
z
" id="ArialMT-30"/>
       <path d="M 9.078125 0 
L 9.078125 10.015625 
L 19.09375 10.015625 
L 19.09375 0 
z
" id="ArialMT-2e"/>
      </defs>
      <g style="fill:#262626;" transform="translate(24.917969 555.230469)scale(0.14 -0.14)">
       <use xlink:href="#ArialMT-30"/>
       <use x="55.615234" xlink:href="#ArialMT-2e"/>
       <use x="83.398438" xlink:href="#ArialMT-30"/>
      </g>
     </g>
    </g>
    <g id="ytick_2">
     <g id="line2d_5">
      <path clip-path="url(#p6a0732dcb0)" d="M 51.377969 492.608161 
L 299.014635 492.608161 
" style="fill:none;stroke:#ffffff;stroke-linecap:round;"/>
     </g>
     <g id="line2d_6"/>
     <g id="text_2">
      <!-- 0.5 -->
      <defs>
       <path d="M 4.15625 18.75 
L 13.375 19.53125 
Q 14.40625 12.796875 18.140625 9.390625 
Q 21.875 6 27.15625 6 
Q 33.5 6 37.890625 10.78125 
Q 42.28125 15.578125 42.28125 23.484375 
Q 42.28125 31 38.0625 35.34375 
Q 33.84375 39.703125 27 39.703125 
Q 22.75 39.703125 19.328125 37.765625 
Q 15.921875 35.84375 13.96875 32.765625 
L 5.71875 33.84375 
L 12.640625 70.609375 
L 48.25 70.609375 
L 48.25 62.203125 
L 19.671875 62.203125 
L 15.828125 42.96875 
Q 22.265625 47.46875 29.34375 47.46875 
Q 38.71875 47.46875 45.15625 40.96875 
Q 51.609375 34.46875 51.609375 24.265625 
Q 51.609375 14.546875 45.953125 7.46875 
Q 39.0625 -1.21875 27.15625 -1.21875 
Q 17.390625 -1.21875 11.203125 4.25 
Q 5.03125 9.71875 4.15625 18.75 
z
" id="ArialMT-35"/>
      </defs>
      <g style="fill:#262626;" transform="translate(24.917969 497.61863)scale(0.14 -0.14)">
       <use xlink:href="#ArialMT-30"/>
       <use x="55.615234" xlink:href="#ArialMT-2e"/>
       <use x="83.398438" xlink:href="#ArialMT-35"/>
      </g>
     </g>
    </g>
    <g id="ytick_3">
     <g id="line2d_7">
      <path clip-path="url(#p6a0732dcb0)" d="M 51.377969 434.996323 
L 299.014635 434.996323 
" style="fill:none;stroke:#ffffff;stroke-linecap:round;"/>
     </g>
     <g id="line2d_8"/>
     <g id="text_3">
      <!-- 1.0 -->
      <defs>
       <path d="M 37.25 0 
L 28.46875 0 
L 28.46875 56 
Q 25.296875 52.984375 20.140625 49.953125 
Q 14.984375 46.921875 10.890625 45.40625 
L 10.890625 53.90625 
Q 18.265625 57.375 23.78125 62.296875 
Q 29.296875 67.234375 31.59375 71.875 
L 37.25 71.875 
z
" id="ArialMT-31"/>
      </defs>
      <g style="fill:#262626;" transform="translate(24.917969 440.006791)scale(0.14 -0.14)">
       <use xlink:href="#ArialMT-31"/>
       <use x="55.615234" xlink:href="#ArialMT-2e"/>
       <use x="83.398438" xlink:href="#ArialMT-30"/>
      </g>
     </g>
    </g>
    <g id="ytick_4">
     <g id="line2d_9">
      <path clip-path="url(#p6a0732dcb0)" d="M 51.377969 377.384484 
L 299.014635 377.384484 
" style="fill:none;stroke:#ffffff;stroke-linecap:round;"/>
     </g>
     <g id="line2d_10"/>
     <g id="text_4">
      <!-- 1.5 -->
      <g style="fill:#262626;" transform="translate(24.917969 382.394953)scale(0.14 -0.14)">
       <use xlink:href="#ArialMT-31"/>
       <use x="55.615234" xlink:href="#ArialMT-2e"/>
       <use x="83.398438" xlink:href="#ArialMT-35"/>
      </g>
     </g>
    </g>
    <g id="ytick_5">
     <g id="line2d_11">
      <path clip-path="url(#p6a0732dcb0)" d="M 51.377969 319.772645 
L 299.014635 319.772645 
" style="fill:none;stroke:#ffffff;stroke-linecap:round;"/>
     </g>
     <g id="line2d_12"/>
     <g id="text_5">
      <!-- 2.0 -->
      <defs>
       <path d="M 50.34375 8.453125 
L 50.34375 0 
L 3.03125 0 
Q 2.9375 3.171875 4.046875 6.109375 
Q 5.859375 10.9375 9.828125 15.625 
Q 13.8125 20.3125 21.34375 26.46875 
Q 33.015625 36.03125 37.109375 41.625 
Q 41.21875 47.21875 41.21875 52.203125 
Q 41.21875 57.421875 37.46875 61 
Q 33.734375 64.59375 27.734375 64.59375 
Q 21.390625 64.59375 17.578125 60.78125 
Q 13.765625 56.984375 13.71875 50.25 
L 4.6875 51.171875 
Q 5.609375 61.28125 11.65625 66.578125 
Q 17.71875 71.875 27.9375 71.875 
Q 38.234375 71.875 44.234375 66.15625 
Q 50.25 60.453125 50.25 52 
Q 50.25 47.703125 48.484375 43.546875 
Q 46.734375 39.40625 42.65625 34.8125 
Q 38.578125 30.21875 29.109375 22.21875 
Q 21.1875 15.578125 18.9375 13.203125 
Q 16.703125 10.84375 15.234375 8.453125 
z
" id="ArialMT-32"/>
      </defs>
      <g style="fill:#262626;" transform="translate(24.917969 324.783114)scale(0.14 -0.14)">
       <use xlink:href="#ArialMT-32"/>
       <use x="55.615234" xlink:href="#ArialMT-2e"/>
       <use x="83.398438" xlink:href="#ArialMT-30"/>
      </g>
     </g>
    </g>
    <g id="ytick_6">
     <g id="line2d_13">
      <path clip-path="url(#p6a0732dcb0)" d="M 51.377969 262.160806 
L 299.014635 262.160806 
" style="fill:none;stroke:#ffffff;stroke-linecap:round;"/>
     </g>
     <g id="line2d_14"/>
     <g id="text_6">
      <!-- 2.5 -->
      <g style="fill:#262626;" transform="translate(24.917969 267.171275)scale(0.14 -0.14)">
       <use xlink:href="#ArialMT-32"/>
       <use x="55.615234" xlink:href="#ArialMT-2e"/>
       <use x="83.398438" xlink:href="#ArialMT-35"/>
      </g>
     </g>
    </g>
    <g id="ytick_7">
     <g id="line2d_15">
      <path clip-path="url(#p6a0732dcb0)" d="M 51.377969 204.548968 
L 299.014635 204.548968 
" style="fill:none;stroke:#ffffff;stroke-linecap:round;"/>
     </g>
     <g id="line2d_16"/>
     <g id="text_7">
      <!-- 3.0 -->
      <defs>
       <path d="M 4.203125 18.890625 
L 12.984375 20.0625 
Q 14.5 12.59375 18.140625 9.296875 
Q 21.78125 6 27 6 
Q 33.203125 6 37.46875 10.296875 
Q 41.75 14.59375 41.75 20.953125 
Q 41.75 27 37.796875 30.921875 
Q 33.84375 34.859375 27.734375 34.859375 
Q 25.25 34.859375 21.53125 33.890625 
L 22.515625 41.609375 
Q 23.390625 41.5 23.921875 41.5 
Q 29.546875 41.5 34.03125 44.421875 
Q 38.53125 47.359375 38.53125 53.46875 
Q 38.53125 58.296875 35.25 61.46875 
Q 31.984375 64.65625 26.8125 64.65625 
Q 21.6875 64.65625 18.265625 61.421875 
Q 14.84375 58.203125 13.875 51.765625 
L 5.078125 53.328125 
Q 6.6875 62.15625 12.390625 67.015625 
Q 18.109375 71.875 26.609375 71.875 
Q 32.46875 71.875 37.390625 69.359375 
Q 42.328125 66.84375 44.9375 62.5 
Q 47.5625 58.15625 47.5625 53.265625 
Q 47.5625 48.640625 45.0625 44.828125 
Q 42.578125 41.015625 37.703125 38.765625 
Q 44.046875 37.3125 47.5625 32.6875 
Q 51.078125 28.078125 51.078125 21.140625 
Q 51.078125 11.765625 44.234375 5.25 
Q 37.40625 -1.265625 26.953125 -1.265625 
Q 17.53125 -1.265625 11.296875 4.34375 
Q 5.078125 9.96875 4.203125 18.890625 
z
" id="ArialMT-33"/>
      </defs>
      <g style="fill:#262626;" transform="translate(24.917969 209.559436)scale(0.14 -0.14)">
       <use xlink:href="#ArialMT-33"/>
       <use x="55.615234" xlink:href="#ArialMT-2e"/>
       <use x="83.398438" xlink:href="#ArialMT-30"/>
      </g>
     </g>
    </g>
    <g id="ytick_8">
     <g id="line2d_17">
      <path clip-path="url(#p6a0732dcb0)" d="M 51.377969 146.937129 
L 299.014635 146.937129 
" style="fill:none;stroke:#ffffff;stroke-linecap:round;"/>
     </g>
     <g id="line2d_18"/>
     <g id="text_8">
      <!-- 3.5 -->
      <g style="fill:#262626;" transform="translate(24.917969 151.947598)scale(0.14 -0.14)">
       <use xlink:href="#ArialMT-33"/>
       <use x="55.615234" xlink:href="#ArialMT-2e"/>
       <use x="83.398438" xlink:href="#ArialMT-35"/>
      </g>
     </g>
    </g>
    <g id="ytick_9">
     <g id="line2d_19">
      <path clip-path="url(#p6a0732dcb0)" d="M 51.377969 89.32529 
L 299.014635 89.32529 
" style="fill:none;stroke:#ffffff;stroke-linecap:round;"/>
     </g>
     <g id="line2d_20"/>
     <g id="text_9">
      <!-- 4.0 -->
      <defs>
       <path d="M 32.328125 0 
L 32.328125 17.140625 
L 1.265625 17.140625 
L 1.265625 25.203125 
L 33.9375 71.578125 
L 41.109375 71.578125 
L 41.109375 25.203125 
L 50.78125 25.203125 
L 50.78125 17.140625 
L 41.109375 17.140625 
L 41.109375 0 
z
M 32.328125 25.203125 
L 32.328125 57.46875 
L 9.90625 25.203125 
z
" id="ArialMT-34"/>
      </defs>
      <g style="fill:#262626;" transform="translate(24.917969 94.335759)scale(0.14 -0.14)">
       <use xlink:href="#ArialMT-34"/>
       <use x="55.615234" xlink:href="#ArialMT-2e"/>
       <use x="83.398438" xlink:href="#ArialMT-30"/>
      </g>
     </g>
    </g>
    <g id="text_10">
     <!-- Mean overall review score -->
     <defs>
      <path d="M 7.421875 0 
L 7.421875 71.578125 
L 21.6875 71.578125 
L 38.625 20.90625 
Q 40.96875 13.8125 42.046875 10.296875 
Q 43.265625 14.203125 45.84375 21.78125 
L 62.984375 71.578125 
L 75.734375 71.578125 
L 75.734375 0 
L 66.609375 0 
L 66.609375 59.90625 
L 45.796875 0 
L 37.25 0 
L 16.546875 60.9375 
L 16.546875 0 
z
" id="ArialMT-4d"/>
      <path d="M 42.09375 16.703125 
L 51.171875 15.578125 
Q 49.03125 7.625 43.21875 3.21875 
Q 37.40625 -1.171875 28.375 -1.171875 
Q 17 -1.171875 10.328125 5.828125 
Q 3.65625 12.84375 3.65625 25.484375 
Q 3.65625 38.578125 10.390625 45.796875 
Q 17.140625 53.03125 27.875 53.03125 
Q 38.28125 53.03125 44.875 45.953125 
Q 51.46875 38.875 51.46875 26.03125 
Q 51.46875 25.25 51.421875 23.6875 
L 12.75 23.6875 
Q 13.234375 15.140625 17.578125 10.59375 
Q 21.921875 6.0625 28.421875 6.0625 
Q 33.25 6.0625 36.671875 8.59375 
Q 40.09375 11.140625 42.09375 16.703125 
z
M 13.234375 30.90625 
L 42.1875 30.90625 
Q 41.609375 37.453125 38.875 40.71875 
Q 34.671875 45.796875 27.984375 45.796875 
Q 21.921875 45.796875 17.796875 41.75 
Q 13.671875 37.703125 13.234375 30.90625 
z
" id="ArialMT-65"/>
      <path d="M 40.4375 6.390625 
Q 35.546875 2.25 31.03125 0.53125 
Q 26.515625 -1.171875 21.34375 -1.171875 
Q 12.796875 -1.171875 8.203125 3 
Q 3.609375 7.171875 3.609375 13.671875 
Q 3.609375 17.484375 5.34375 20.625 
Q 7.078125 23.78125 9.890625 25.6875 
Q 12.703125 27.59375 16.21875 28.5625 
Q 18.796875 29.25 24.03125 29.890625 
Q 34.671875 31.15625 39.703125 32.90625 
Q 39.75 34.71875 39.75 35.203125 
Q 39.75 40.578125 37.25 42.78125 
Q 33.890625 45.75 27.25 45.75 
Q 21.046875 45.75 18.09375 43.578125 
Q 15.140625 41.40625 13.71875 35.890625 
L 5.125 37.0625 
Q 6.296875 42.578125 8.984375 45.96875 
Q 11.671875 49.359375 16.75 51.1875 
Q 21.828125 53.03125 28.515625 53.03125 
Q 35.15625 53.03125 39.296875 51.46875 
Q 43.453125 49.90625 45.40625 47.53125 
Q 47.359375 45.171875 48.140625 41.546875 
Q 48.578125 39.3125 48.578125 33.453125 
L 48.578125 21.734375 
Q 48.578125 9.46875 49.140625 6.21875 
Q 49.703125 2.984375 51.375 0 
L 42.1875 0 
Q 40.828125 2.734375 40.4375 6.390625 
z
M 39.703125 26.03125 
Q 34.90625 24.078125 25.34375 22.703125 
Q 19.921875 21.921875 17.671875 20.9375 
Q 15.4375 19.96875 14.203125 18.09375 
Q 12.984375 16.21875 12.984375 13.921875 
Q 12.984375 10.40625 15.640625 8.0625 
Q 18.3125 5.71875 23.4375 5.71875 
Q 28.515625 5.71875 32.46875 7.9375 
Q 36.421875 10.15625 38.28125 14.015625 
Q 39.703125 17 39.703125 22.796875 
z
" id="ArialMT-61"/>
      <path d="M 6.59375 0 
L 6.59375 51.859375 
L 14.5 51.859375 
L 14.5 44.484375 
Q 20.21875 53.03125 31 53.03125 
Q 35.6875 53.03125 39.625 51.34375 
Q 43.5625 49.65625 45.515625 46.921875 
Q 47.46875 44.1875 48.25 40.4375 
Q 48.734375 37.984375 48.734375 31.890625 
L 48.734375 0 
L 39.9375 0 
L 39.9375 31.546875 
Q 39.9375 36.921875 38.90625 39.578125 
Q 37.890625 42.234375 35.28125 43.8125 
Q 32.671875 45.40625 29.15625 45.40625 
Q 23.53125 45.40625 19.453125 41.84375 
Q 15.375 38.28125 15.375 28.328125 
L 15.375 0 
z
" id="ArialMT-6e"/>
      <path id="ArialMT-20"/>
      <path d="M 3.328125 25.921875 
Q 3.328125 40.328125 11.328125 47.265625 
Q 18.015625 53.03125 27.640625 53.03125 
Q 38.328125 53.03125 45.109375 46.015625 
Q 51.90625 39.015625 51.90625 26.65625 
Q 51.90625 16.65625 48.90625 10.90625 
Q 45.90625 5.171875 40.15625 2 
Q 34.421875 -1.171875 27.640625 -1.171875 
Q 16.75 -1.171875 10.03125 5.8125 
Q 3.328125 12.796875 3.328125 25.921875 
z
M 12.359375 25.921875 
Q 12.359375 15.96875 16.703125 11.015625 
Q 21.046875 6.0625 27.640625 6.0625 
Q 34.1875 6.0625 38.53125 11.03125 
Q 42.875 16.015625 42.875 26.21875 
Q 42.875 35.84375 38.5 40.796875 
Q 34.125 45.75 27.640625 45.75 
Q 21.046875 45.75 16.703125 40.8125 
Q 12.359375 35.890625 12.359375 25.921875 
z
" id="ArialMT-6f"/>
      <path d="M 21 0 
L 1.265625 51.859375 
L 10.546875 51.859375 
L 21.6875 20.796875 
Q 23.484375 15.765625 25 10.359375 
Q 26.171875 14.453125 28.265625 20.21875 
L 39.796875 51.859375 
L 48.828125 51.859375 
L 29.203125 0 
z
" id="ArialMT-76"/>
      <path d="M 6.5 0 
L 6.5 51.859375 
L 14.40625 51.859375 
L 14.40625 44 
Q 17.4375 49.515625 20 51.265625 
Q 22.5625 53.03125 25.640625 53.03125 
Q 30.078125 53.03125 34.671875 50.203125 
L 31.640625 42.046875 
Q 28.421875 43.953125 25.203125 43.953125 
Q 22.3125 43.953125 20.015625 42.21875 
Q 17.71875 40.484375 16.75 37.40625 
Q 15.28125 32.71875 15.28125 27.15625 
L 15.28125 0 
z
" id="ArialMT-72"/>
      <path d="M 6.390625 0 
L 6.390625 71.578125 
L 15.1875 71.578125 
L 15.1875 0 
z
" id="ArialMT-6c"/>
      <path d="M 6.640625 61.46875 
L 6.640625 71.578125 
L 15.4375 71.578125 
L 15.4375 61.46875 
z
M 6.640625 0 
L 6.640625 51.859375 
L 15.4375 51.859375 
L 15.4375 0 
z
" id="ArialMT-69"/>
      <path d="M 16.15625 0 
L 0.296875 51.859375 
L 9.375 51.859375 
L 17.625 21.921875 
L 20.703125 10.796875 
Q 20.90625 11.625 23.390625 21.484375 
L 31.640625 51.859375 
L 40.671875 51.859375 
L 48.4375 21.78125 
L 51.03125 11.859375 
L 54 21.875 
L 62.890625 51.859375 
L 71.4375 51.859375 
L 55.21875 0 
L 46.09375 0 
L 37.84375 31.0625 
L 35.84375 39.890625 
L 25.34375 0 
z
" id="ArialMT-77"/>
      <path d="M 3.078125 15.484375 
L 11.765625 16.84375 
Q 12.5 11.625 15.84375 8.84375 
Q 19.1875 6.0625 25.203125 6.0625 
Q 31.25 6.0625 34.171875 8.515625 
Q 37.109375 10.984375 37.109375 14.3125 
Q 37.109375 17.28125 34.515625 19 
Q 32.71875 20.171875 25.53125 21.96875 
Q 15.875 24.421875 12.140625 26.203125 
Q 8.40625 27.984375 6.46875 31.125 
Q 4.546875 34.28125 4.546875 38.09375 
Q 4.546875 41.546875 6.125 44.5 
Q 7.71875 47.46875 10.453125 49.421875 
Q 12.5 50.921875 16.03125 51.96875 
Q 19.578125 53.03125 23.640625 53.03125 
Q 29.734375 53.03125 34.34375 51.265625 
Q 38.96875 49.515625 41.15625 46.5 
Q 43.359375 43.5 44.1875 38.484375 
L 35.59375 37.3125 
Q 35.015625 41.3125 32.203125 43.546875 
Q 29.390625 45.796875 24.265625 45.796875 
Q 18.21875 45.796875 15.625 43.796875 
Q 13.03125 41.796875 13.03125 39.109375 
Q 13.03125 37.40625 14.109375 36.03125 
Q 15.1875 34.625 17.484375 33.6875 
Q 18.796875 33.203125 25.25 31.453125 
Q 34.578125 28.953125 38.25 27.359375 
Q 41.9375 25.78125 44.03125 22.75 
Q 46.140625 19.734375 46.140625 15.234375 
Q 46.140625 10.84375 43.578125 6.953125 
Q 41.015625 3.078125 36.171875 0.953125 
Q 31.34375 -1.171875 25.25 -1.171875 
Q 15.140625 -1.171875 9.84375 3.03125 
Q 4.546875 7.234375 3.078125 15.484375 
z
" id="ArialMT-73"/>
      <path d="M 40.4375 19 
L 49.078125 17.875 
Q 47.65625 8.9375 41.8125 3.875 
Q 35.984375 -1.171875 27.484375 -1.171875 
Q 16.84375 -1.171875 10.375 5.78125 
Q 3.90625 12.75 3.90625 25.734375 
Q 3.90625 34.125 6.6875 40.421875 
Q 9.46875 46.734375 15.15625 49.875 
Q 20.84375 53.03125 27.546875 53.03125 
Q 35.984375 53.03125 41.359375 48.75 
Q 46.734375 44.484375 48.25 36.625 
L 39.703125 35.296875 
Q 38.484375 40.53125 35.375 43.15625 
Q 32.28125 45.796875 27.875 45.796875 
Q 21.234375 45.796875 17.078125 41.03125 
Q 12.9375 36.28125 12.9375 25.984375 
Q 12.9375 15.53125 16.9375 10.796875 
Q 20.953125 6.0625 27.390625 6.0625 
Q 32.5625 6.0625 36.03125 9.234375 
Q 39.5 12.40625 40.4375 19 
z
" id="ArialMT-63"/>
     </defs>
     <g style="fill:#262626;" transform="translate(17.936719 380.9425)rotate(-90)scale(0.15 -0.15)">
      <use xlink:href="#ArialMT-4d"/>
      <use x="83.300781" xlink:href="#ArialMT-65"/>
      <use x="138.916016" xlink:href="#ArialMT-61"/>
      <use x="194.53125" xlink:href="#ArialMT-6e"/>
      <use x="250.146484" xlink:href="#ArialMT-20"/>
      <use x="277.929688" xlink:href="#ArialMT-6f"/>
      <use x="333.544922" xlink:href="#ArialMT-76"/>
      <use x="383.544922" xlink:href="#ArialMT-65"/>
      <use x="439.160156" xlink:href="#ArialMT-72"/>
      <use x="472.460938" xlink:href="#ArialMT-61"/>
      <use x="528.076172" xlink:href="#ArialMT-6c"/>
      <use x="550.292969" xlink:href="#ArialMT-6c"/>
      <use x="572.509766" xlink:href="#ArialMT-20"/>
      <use x="600.292969" xlink:href="#ArialMT-72"/>
      <use x="633.59375" xlink:href="#ArialMT-65"/>
      <use x="689.208984" xlink:href="#ArialMT-76"/>
      <use x="739.208984" xlink:href="#ArialMT-69"/>
      <use x="761.425781" xlink:href="#ArialMT-65"/>
      <use x="817.041016" xlink:href="#ArialMT-77"/>
      <use x="889.257812" xlink:href="#ArialMT-20"/>
      <use x="917.041016" xlink:href="#ArialMT-73"/>
      <use x="967.041016" xlink:href="#ArialMT-63"/>
      <use x="1017.041016" xlink:href="#ArialMT-6f"/>
      <use x="1072.65625" xlink:href="#ArialMT-72"/>
      <use x="1105.957031" xlink:href="#ArialMT-65"/>
     </g>
    </g>
   </g>
   <g id="patch_3">
    <path clip-path="url(#p6a0732dcb0)" d="M 113.287135 550.22 
L 175.196302 550.22 
L 175.196302 62.981624 
L 113.287135 62.981624 
z
" style="fill:#4c72b0;"/>
   </g>
   <g id="patch_4">
    <path clip-path="url(#p6a0732dcb0)" d="M 175.196302 550.22 
L 237.105469 550.22 
L 237.105469 68.295278 
L 175.196302 68.295278 
z
" style="fill:#55a868;"/>
   </g>
   <g id="LineCollection_1">
    <path clip-path="url(#p6a0732dcb0)" d="M 144.241719 64.105153 
L 144.241719 61.858095 
" style="fill:none;stroke:#262626;stroke-width:1.75;"/>
   </g>
   <g id="LineCollection_2">
    <path clip-path="url(#p6a0732dcb0)" d="M 206.150885 68.329751 
L 206.150885 68.260804 
" style="fill:none;stroke:#262626;stroke-width:1.75;"/>
   </g>
   <g id="line2d_21">
    <defs>
     <path d="M 20 0 
L -20 -0 
" id="me05f5e5788" style="stroke:#262626;stroke-width:2;"/>
    </defs>
    <g clip-path="url(#p6a0732dcb0)">
     <use style="fill:#262626;stroke:#262626;stroke-width:2;" x="144.241719" xlink:href="#me05f5e5788" y="64.105153"/>
    </g>
   </g>
   <g id="line2d_22">
    <g clip-path="url(#p6a0732dcb0)">
     <use style="fill:#262626;stroke:#262626;stroke-width:2;" x="144.241719" xlink:href="#me05f5e5788" y="61.858095"/>
    </g>
   </g>
   <g id="line2d_23">
    <g clip-path="url(#p6a0732dcb0)">
     <use style="fill:#262626;stroke:#262626;stroke-width:2;" x="206.150885" xlink:href="#me05f5e5788" y="68.329751"/>
    </g>
   </g>
   <g id="line2d_24">
    <g clip-path="url(#p6a0732dcb0)">
     <use style="fill:#262626;stroke:#262626;stroke-width:2;" x="206.150885" xlink:href="#me05f5e5788" y="68.260804"/>
    </g>
   </g>
   <g id="patch_5">
    <path d="M 51.377969 550.22 
L 51.377969 37.44 
" style="fill:none;"/>
   </g>
   <g id="patch_6">
    <path d="M 299.014635 550.22 
L 299.014635 37.44 
" style="fill:none;"/>
   </g>
   <g id="patch_7">
    <path d="M 51.377969 550.22 
L 299.014635 550.22 
" style="fill:none;"/>
   </g>
   <g id="patch_8">
    <path d="M 51.377969 37.44 
L 299.014635 37.44 
" style="fill:none;"/>
   </g>
   <g id="text_11">
    <!-- 4.23 -->
    <g style="fill:#262626;" transform="translate(125.668969 306.600812)scale(0.14 -0.14)">
     <use xlink:href="#ArialMT-34"/>
     <use x="55.615234" xlink:href="#ArialMT-2e"/>
     <use x="83.398438" xlink:href="#ArialMT-32"/>
     <use x="139.013672" xlink:href="#ArialMT-33"/>
    </g>
   </g>
   <g id="text_12">
    <!-- 4.18 -->
    <defs>
     <path d="M 17.671875 38.8125 
Q 12.203125 40.828125 9.5625 44.53125 
Q 6.9375 48.25 6.9375 53.421875 
Q 6.9375 61.234375 12.546875 66.546875 
Q 18.171875 71.875 27.484375 71.875 
Q 36.859375 71.875 42.578125 66.421875 
Q 48.296875 60.984375 48.296875 53.171875 
Q 48.296875 48.1875 45.671875 44.5 
Q 43.0625 40.828125 37.75 38.8125 
Q 44.34375 36.671875 47.78125 31.875 
Q 51.21875 27.09375 51.21875 20.453125 
Q 51.21875 11.28125 44.71875 5.03125 
Q 38.234375 -1.21875 27.640625 -1.21875 
Q 17.046875 -1.21875 10.546875 5.046875 
Q 4.046875 11.328125 4.046875 20.703125 
Q 4.046875 27.6875 7.59375 32.390625 
Q 11.140625 37.109375 17.671875 38.8125 
z
M 15.921875 53.71875 
Q 15.921875 48.640625 19.1875 45.40625 
Q 22.46875 42.1875 27.6875 42.1875 
Q 32.765625 42.1875 36.015625 45.375 
Q 39.265625 48.578125 39.265625 53.21875 
Q 39.265625 58.0625 35.90625 61.359375 
Q 32.5625 64.65625 27.59375 64.65625 
Q 22.5625 64.65625 19.234375 61.421875 
Q 15.921875 58.203125 15.921875 53.71875 
z
M 13.09375 20.65625 
Q 13.09375 16.890625 14.875 13.375 
Q 16.65625 9.859375 20.171875 7.921875 
Q 23.6875 6 27.734375 6 
Q 34.03125 6 38.125 10.046875 
Q 42.234375 14.109375 42.234375 20.359375 
Q 42.234375 26.703125 38.015625 30.859375 
Q 33.796875 35.015625 27.4375 35.015625 
Q 21.234375 35.015625 17.15625 30.90625 
Q 13.09375 26.8125 13.09375 20.65625 
z
" id="ArialMT-38"/>
    </defs>
    <g style="fill:#262626;" transform="translate(192.530869 309.257639)scale(0.14 -0.14)">
     <use xlink:href="#ArialMT-34"/>
     <use x="55.615234" xlink:href="#ArialMT-2e"/>
     <use x="83.398438" xlink:href="#ArialMT-31"/>
     <use x="139.013672" xlink:href="#ArialMT-38"/>
    </g>
   </g>
  </g>
  <g id="axes_2">
   <g id="patch_9">
    <path d="M 360.349635 550.22 
L 607.986302 550.22 
L 607.986302 37.44 
L 360.349635 37.44 
z
" style="fill:#eaeaf2;"/>
   </g>
   <g id="matplotlib.axis_3">
    <g id="xtick_2">
     <g id="line2d_25">
      <path clip-path="url(#p21f48081a5)" d="M 484.167969 550.22 
L 484.167969 37.44 
" style="fill:none;stroke:#ffffff;stroke-linecap:round;"/>
     </g>
     <g id="line2d_26"/>
    </g>
   </g>
   <g id="matplotlib.axis_4">
    <g id="ytick_10">
     <g id="line2d_27">
      <path clip-path="url(#p21f48081a5)" d="M 360.349635 550.22 
L 607.986302 550.22 
" style="fill:none;stroke:#ffffff;stroke-linecap:round;"/>
     </g>
     <g id="line2d_28"/>
     <g id="text_13">
      <!-- 0.0 -->
      <g style="fill:#262626;" transform="translate(333.889635 555.230469)scale(0.14 -0.14)">
       <use xlink:href="#ArialMT-30"/>
       <use x="55.615234" xlink:href="#ArialMT-2e"/>
       <use x="83.398438" xlink:href="#ArialMT-30"/>
      </g>
     </g>
    </g>
    <g id="ytick_11">
     <g id="line2d_29">
      <path clip-path="url(#p21f48081a5)" d="M 360.349635 491.34513 
L 607.986302 491.34513 
" style="fill:none;stroke:#ffffff;stroke-linecap:round;"/>
     </g>
     <g id="line2d_30"/>
     <g id="text_14">
      <!-- 0.1 -->
      <g style="fill:#262626;" transform="translate(333.889635 496.355599)scale(0.14 -0.14)">
       <use xlink:href="#ArialMT-30"/>
       <use x="55.615234" xlink:href="#ArialMT-2e"/>
       <use x="83.398438" xlink:href="#ArialMT-31"/>
      </g>
     </g>
    </g>
    <g id="ytick_12">
     <g id="line2d_31">
      <path clip-path="url(#p21f48081a5)" d="M 360.349635 432.47026 
L 607.986302 432.47026 
" style="fill:none;stroke:#ffffff;stroke-linecap:round;"/>
     </g>
     <g id="line2d_32"/>
     <g id="text_15">
      <!-- 0.2 -->
      <g style="fill:#262626;" transform="translate(333.889635 437.480729)scale(0.14 -0.14)">
       <use xlink:href="#ArialMT-30"/>
       <use x="55.615234" xlink:href="#ArialMT-2e"/>
       <use x="83.398438" xlink:href="#ArialMT-32"/>
      </g>
     </g>
    </g>
    <g id="ytick_13">
     <g id="line2d_33">
      <path clip-path="url(#p21f48081a5)" d="M 360.349635 373.59539 
L 607.986302 373.59539 
" style="fill:none;stroke:#ffffff;stroke-linecap:round;"/>
     </g>
     <g id="line2d_34"/>
     <g id="text_16">
      <!-- 0.3 -->
      <g style="fill:#262626;" transform="translate(333.889635 378.605858)scale(0.14 -0.14)">
       <use xlink:href="#ArialMT-30"/>
       <use x="55.615234" xlink:href="#ArialMT-2e"/>
       <use x="83.398438" xlink:href="#ArialMT-33"/>
      </g>
     </g>
    </g>
    <g id="ytick_14">
     <g id="line2d_35">
      <path clip-path="url(#p21f48081a5)" d="M 360.349635 314.72052 
L 607.986302 314.72052 
" style="fill:none;stroke:#ffffff;stroke-linecap:round;"/>
     </g>
     <g id="line2d_36"/>
     <g id="text_17">
      <!-- 0.4 -->
      <g style="fill:#262626;" transform="translate(333.889635 319.730988)scale(0.14 -0.14)">
       <use xlink:href="#ArialMT-30"/>
       <use x="55.615234" xlink:href="#ArialMT-2e"/>
       <use x="83.398438" xlink:href="#ArialMT-34"/>
      </g>
     </g>
    </g>
    <g id="ytick_15">
     <g id="line2d_37">
      <path clip-path="url(#p21f48081a5)" d="M 360.349635 255.845649 
L 607.986302 255.845649 
" style="fill:none;stroke:#ffffff;stroke-linecap:round;"/>
     </g>
     <g id="line2d_38"/>
     <g id="text_18">
      <!-- 0.5 -->
      <g style="fill:#262626;" transform="translate(333.889635 260.856118)scale(0.14 -0.14)">
       <use xlink:href="#ArialMT-30"/>
       <use x="55.615234" xlink:href="#ArialMT-2e"/>
       <use x="83.398438" xlink:href="#ArialMT-35"/>
      </g>
     </g>
    </g>
    <g id="ytick_16">
     <g id="line2d_39">
      <path clip-path="url(#p21f48081a5)" d="M 360.349635 196.970779 
L 607.986302 196.970779 
" style="fill:none;stroke:#ffffff;stroke-linecap:round;"/>
     </g>
     <g id="line2d_40"/>
     <g id="text_19">
      <!-- 0.6 -->
      <defs>
       <path d="M 49.75 54.046875 
L 41.015625 53.375 
Q 39.84375 58.546875 37.703125 60.890625 
Q 34.125 64.65625 28.90625 64.65625 
Q 24.703125 64.65625 21.53125 62.3125 
Q 17.390625 59.28125 14.984375 53.46875 
Q 12.59375 47.65625 12.5 36.921875 
Q 15.671875 41.75 20.265625 44.09375 
Q 24.859375 46.4375 29.890625 46.4375 
Q 38.671875 46.4375 44.84375 39.96875 
Q 51.03125 33.5 51.03125 23.25 
Q 51.03125 16.5 48.125 10.71875 
Q 45.21875 4.9375 40.140625 1.859375 
Q 35.0625 -1.21875 28.609375 -1.21875 
Q 17.625 -1.21875 10.6875 6.859375 
Q 3.765625 14.9375 3.765625 33.5 
Q 3.765625 54.25 11.421875 63.671875 
Q 18.109375 71.875 29.4375 71.875 
Q 37.890625 71.875 43.28125 67.140625 
Q 48.6875 62.40625 49.75 54.046875 
z
M 13.875 23.1875 
Q 13.875 18.65625 15.796875 14.5 
Q 17.71875 10.359375 21.1875 8.171875 
Q 24.65625 6 28.46875 6 
Q 34.03125 6 38.03125 10.484375 
Q 42.046875 14.984375 42.046875 22.703125 
Q 42.046875 30.125 38.078125 34.390625 
Q 34.125 38.671875 28.125 38.671875 
Q 22.171875 38.671875 18.015625 34.390625 
Q 13.875 30.125 13.875 23.1875 
z
" id="ArialMT-36"/>
      </defs>
      <g style="fill:#262626;" transform="translate(333.889635 201.981248)scale(0.14 -0.14)">
       <use xlink:href="#ArialMT-30"/>
       <use x="55.615234" xlink:href="#ArialMT-2e"/>
       <use x="83.398438" xlink:href="#ArialMT-36"/>
      </g>
     </g>
    </g>
    <g id="ytick_17">
     <g id="line2d_41">
      <path clip-path="url(#p21f48081a5)" d="M 360.349635 138.095909 
L 607.986302 138.095909 
" style="fill:none;stroke:#ffffff;stroke-linecap:round;"/>
     </g>
     <g id="line2d_42"/>
     <g id="text_20">
      <!-- 0.7 -->
      <defs>
       <path d="M 4.734375 62.203125 
L 4.734375 70.65625 
L 51.078125 70.65625 
L 51.078125 63.8125 
Q 44.234375 56.546875 37.515625 44.484375 
Q 30.8125 32.421875 27.15625 19.671875 
Q 24.515625 10.6875 23.78125 0 
L 14.75 0 
Q 14.890625 8.453125 18.0625 20.40625 
Q 21.234375 32.375 27.171875 43.484375 
Q 33.109375 54.59375 39.796875 62.203125 
z
" id="ArialMT-37"/>
      </defs>
      <g style="fill:#262626;" transform="translate(333.889635 143.106378)scale(0.14 -0.14)">
       <use xlink:href="#ArialMT-30"/>
       <use x="55.615234" xlink:href="#ArialMT-2e"/>
       <use x="83.398438" xlink:href="#ArialMT-37"/>
      </g>
     </g>
    </g>
    <g id="ytick_18">
     <g id="line2d_43">
      <path clip-path="url(#p21f48081a5)" d="M 360.349635 79.221039 
L 607.986302 79.221039 
" style="fill:none;stroke:#ffffff;stroke-linecap:round;"/>
     </g>
     <g id="line2d_44"/>
     <g id="text_21">
      <!-- 0.8 -->
      <g style="fill:#262626;" transform="translate(333.889635 84.231508)scale(0.14 -0.14)">
       <use xlink:href="#ArialMT-30"/>
       <use x="55.615234" xlink:href="#ArialMT-2e"/>
       <use x="83.398438" xlink:href="#ArialMT-38"/>
      </g>
     </g>
    </g>
    <g id="text_22">
     <!-- Mean sentiment score -->
     <defs>
      <path d="M 25.78125 7.859375 
L 27.046875 0.09375 
Q 23.34375 -0.6875 20.40625 -0.6875 
Q 15.625 -0.6875 12.984375 0.828125 
Q 10.359375 2.34375 9.28125 4.8125 
Q 8.203125 7.28125 8.203125 15.1875 
L 8.203125 45.015625 
L 1.765625 45.015625 
L 1.765625 51.859375 
L 8.203125 51.859375 
L 8.203125 64.703125 
L 16.9375 69.96875 
L 16.9375 51.859375 
L 25.78125 51.859375 
L 25.78125 45.015625 
L 16.9375 45.015625 
L 16.9375 14.703125 
Q 16.9375 10.9375 17.40625 9.859375 
Q 17.875 8.796875 18.921875 8.15625 
Q 19.96875 7.515625 21.921875 7.515625 
Q 23.390625 7.515625 25.78125 7.859375 
z
" id="ArialMT-74"/>
      <path d="M 6.59375 0 
L 6.59375 51.859375 
L 14.453125 51.859375 
L 14.453125 44.578125 
Q 16.890625 48.390625 20.9375 50.703125 
Q 25 53.03125 30.171875 53.03125 
Q 35.9375 53.03125 39.625 50.640625 
Q 43.3125 48.25 44.828125 43.953125 
Q 50.984375 53.03125 60.84375 53.03125 
Q 68.5625 53.03125 72.703125 48.75 
Q 76.859375 44.484375 76.859375 35.59375 
L 76.859375 0 
L 68.109375 0 
L 68.109375 32.671875 
Q 68.109375 37.9375 67.25 40.25 
Q 66.40625 42.578125 64.15625 43.984375 
Q 61.921875 45.40625 58.890625 45.40625 
Q 53.421875 45.40625 49.796875 41.765625 
Q 46.1875 38.140625 46.1875 30.125 
L 46.1875 0 
L 37.40625 0 
L 37.40625 33.6875 
Q 37.40625 39.546875 35.25 42.46875 
Q 33.109375 45.40625 28.21875 45.40625 
Q 24.515625 45.40625 21.359375 43.453125 
Q 18.21875 41.5 16.796875 37.734375 
Q 15.375 33.984375 15.375 26.90625 
L 15.375 0 
z
" id="ArialMT-6d"/>
     </defs>
     <g style="fill:#262626;" transform="translate(326.908385 367.608906)rotate(-90)scale(0.15 -0.15)">
      <use xlink:href="#ArialMT-4d"/>
      <use x="83.300781" xlink:href="#ArialMT-65"/>
      <use x="138.916016" xlink:href="#ArialMT-61"/>
      <use x="194.53125" xlink:href="#ArialMT-6e"/>
      <use x="250.146484" xlink:href="#ArialMT-20"/>
      <use x="277.929688" xlink:href="#ArialMT-73"/>
      <use x="327.929688" xlink:href="#ArialMT-65"/>
      <use x="383.544922" xlink:href="#ArialMT-6e"/>
      <use x="439.160156" xlink:href="#ArialMT-74"/>
      <use x="466.943359" xlink:href="#ArialMT-69"/>
      <use x="489.160156" xlink:href="#ArialMT-6d"/>
      <use x="572.460938" xlink:href="#ArialMT-65"/>
      <use x="628.076172" xlink:href="#ArialMT-6e"/>
      <use x="683.691406" xlink:href="#ArialMT-74"/>
      <use x="711.474609" xlink:href="#ArialMT-20"/>
      <use x="739.257812" xlink:href="#ArialMT-73"/>
      <use x="789.257812" xlink:href="#ArialMT-63"/>
      <use x="839.257812" xlink:href="#ArialMT-6f"/>
      <use x="894.873047" xlink:href="#ArialMT-72"/>
      <use x="928.173828" xlink:href="#ArialMT-65"/>
     </g>
    </g>
   </g>
   <g id="patch_10">
    <path clip-path="url(#p21f48081a5)" d="M 422.258802 550.22 
L 484.167969 550.22 
L 484.167969 63.520899 
L 422.258802 63.520899 
z
" style="fill:#4c72b0;"/>
   </g>
   <g id="patch_11">
    <path clip-path="url(#p21f48081a5)" d="M 484.167969 550.22 
L 546.077135 550.22 
L 546.077135 206.887845 
L 484.167969 206.887845 
z
" style="fill:#55a868;"/>
   </g>
   <g id="LineCollection_3">
    <path clip-path="url(#p21f48081a5)" d="M 453.213385 65.183703 
L 453.213385 61.858095 
" style="fill:none;stroke:#262626;stroke-width:1.75;"/>
   </g>
   <g id="LineCollection_4">
    <path clip-path="url(#p21f48081a5)" d="M 515.122552 206.945547 
L 515.122552 206.830143 
" style="fill:none;stroke:#262626;stroke-width:1.75;"/>
   </g>
   <g id="line2d_45">
    <g clip-path="url(#p21f48081a5)">
     <use style="fill:#262626;stroke:#262626;stroke-width:2;" x="453.213385" xlink:href="#me05f5e5788" y="65.183703"/>
    </g>
   </g>
   <g id="line2d_46">
    <g clip-path="url(#p21f48081a5)">
     <use style="fill:#262626;stroke:#262626;stroke-width:2;" x="453.213385" xlink:href="#me05f5e5788" y="61.858095"/>
    </g>
   </g>
   <g id="line2d_47">
    <g clip-path="url(#p21f48081a5)">
     <use style="fill:#262626;stroke:#262626;stroke-width:2;" x="515.122552" xlink:href="#me05f5e5788" y="206.945547"/>
    </g>
   </g>
   <g id="line2d_48">
    <g clip-path="url(#p21f48081a5)">
     <use style="fill:#262626;stroke:#262626;stroke-width:2;" x="515.122552" xlink:href="#me05f5e5788" y="206.830143"/>
    </g>
   </g>
   <g id="patch_12">
    <path d="M 360.349635 550.22 
L 360.349635 37.44 
" style="fill:none;"/>
   </g>
   <g id="patch_13">
    <path d="M 607.986302 550.22 
L 607.986302 37.44 
" style="fill:none;"/>
   </g>
   <g id="patch_14">
    <path d="M 360.349635 550.22 
L 607.986302 550.22 
" style="fill:none;"/>
   </g>
   <g id="patch_15">
    <path d="M 360.349635 37.44 
L 607.986302 37.44 
" style="fill:none;"/>
   </g>
   <g id="text_23">
    <!-- 0.83 -->
    <g style="fill:#262626;" transform="translate(434.640635 306.87045)scale(0.14 -0.14)">
     <use xlink:href="#ArialMT-30"/>
     <use x="55.615234" xlink:href="#ArialMT-2e"/>
     <use x="83.398438" xlink:href="#ArialMT-38"/>
     <use x="139.013672" xlink:href="#ArialMT-33"/>
    </g>
   </g>
   <g id="text_24">
    <!-- 0.58 -->
    <g style="fill:#262626;" transform="translate(501.502535 378.553923)scale(0.14 -0.14)">
     <use xlink:href="#ArialMT-30"/>
     <use x="55.615234" xlink:href="#ArialMT-2e"/>
     <use x="83.398438" xlink:href="#ArialMT-35"/>
     <use x="139.013672" xlink:href="#ArialMT-38"/>
    </g>
   </g>
  </g>
  <g id="axes_3">
   <g id="patch_16">
    <path d="M 669.321302 550.22 
L 916.957969 550.22 
L 916.957969 37.44 
L 669.321302 37.44 
z
" style="fill:#eaeaf2;"/>
   </g>
   <g id="matplotlib.axis_5">
    <g id="xtick_3">
     <g id="line2d_49">
      <path clip-path="url(#p29a2830d40)" d="M 793.139635 550.22 
L 793.139635 37.44 
" style="fill:none;stroke:#ffffff;stroke-linecap:round;"/>
     </g>
     <g id="line2d_50"/>
    </g>
   </g>
   <g id="matplotlib.axis_6">
    <g id="ytick_19">
     <g id="line2d_51">
      <path clip-path="url(#p29a2830d40)" d="M 669.321302 550.22 
L 916.957969 550.22 
" style="fill:none;stroke:#ffffff;stroke-linecap:round;"/>
     </g>
     <g id="line2d_52"/>
     <g id="text_25">
      <!-- 0 -->
      <g style="fill:#262626;" transform="translate(654.53599 555.230469)scale(0.14 -0.14)">
       <use xlink:href="#ArialMT-30"/>
      </g>
     </g>
    </g>
    <g id="ytick_20">
     <g id="line2d_53">
      <path clip-path="url(#p29a2830d40)" d="M 669.321302 469.022174 
L 916.957969 469.022174 
" style="fill:none;stroke:#ffffff;stroke-linecap:round;"/>
     </g>
     <g id="line2d_54"/>
     <g id="text_26">
      <!-- 50 -->
      <g style="fill:#262626;" transform="translate(646.750677 474.032643)scale(0.14 -0.14)">
       <use xlink:href="#ArialMT-35"/>
       <use x="55.615234" xlink:href="#ArialMT-30"/>
      </g>
     </g>
    </g>
    <g id="ytick_21">
     <g id="line2d_55">
      <path clip-path="url(#p29a2830d40)" d="M 669.321302 387.824348 
L 916.957969 387.824348 
" style="fill:none;stroke:#ffffff;stroke-linecap:round;"/>
     </g>
     <g id="line2d_56"/>
     <g id="text_27">
      <!-- 100 -->
      <g style="fill:#262626;" transform="translate(638.965365 392.834817)scale(0.14 -0.14)">
       <use xlink:href="#ArialMT-31"/>
       <use x="55.615234" xlink:href="#ArialMT-30"/>
       <use x="111.230469" xlink:href="#ArialMT-30"/>
      </g>
     </g>
    </g>
    <g id="ytick_22">
     <g id="line2d_57">
      <path clip-path="url(#p29a2830d40)" d="M 669.321302 306.626523 
L 916.957969 306.626523 
" style="fill:none;stroke:#ffffff;stroke-linecap:round;"/>
     </g>
     <g id="line2d_58"/>
     <g id="text_28">
      <!-- 150 -->
      <g style="fill:#262626;" transform="translate(638.965365 311.636991)scale(0.14 -0.14)">
       <use xlink:href="#ArialMT-31"/>
       <use x="55.615234" xlink:href="#ArialMT-35"/>
       <use x="111.230469" xlink:href="#ArialMT-30"/>
      </g>
     </g>
    </g>
    <g id="ytick_23">
     <g id="line2d_59">
      <path clip-path="url(#p29a2830d40)" d="M 669.321302 225.428697 
L 916.957969 225.428697 
" style="fill:none;stroke:#ffffff;stroke-linecap:round;"/>
     </g>
     <g id="line2d_60"/>
     <g id="text_29">
      <!-- 200 -->
      <g style="fill:#262626;" transform="translate(638.965365 230.439166)scale(0.14 -0.14)">
       <use xlink:href="#ArialMT-32"/>
       <use x="55.615234" xlink:href="#ArialMT-30"/>
       <use x="111.230469" xlink:href="#ArialMT-30"/>
      </g>
     </g>
    </g>
    <g id="ytick_24">
     <g id="line2d_61">
      <path clip-path="url(#p29a2830d40)" d="M 669.321302 144.230871 
L 916.957969 144.230871 
" style="fill:none;stroke:#ffffff;stroke-linecap:round;"/>
     </g>
     <g id="line2d_62"/>
     <g id="text_30">
      <!-- 250 -->
      <g style="fill:#262626;" transform="translate(638.965365 149.24134)scale(0.14 -0.14)">
       <use xlink:href="#ArialMT-32"/>
       <use x="55.615234" xlink:href="#ArialMT-35"/>
       <use x="111.230469" xlink:href="#ArialMT-30"/>
      </g>
     </g>
    </g>
    <g id="ytick_25">
     <g id="line2d_63">
      <path clip-path="url(#p29a2830d40)" d="M 669.321302 63.033045 
L 916.957969 63.033045 
" style="fill:none;stroke:#ffffff;stroke-linecap:round;"/>
     </g>
     <g id="line2d_64"/>
     <g id="text_31">
      <!-- 300 -->
      <g style="fill:#262626;" transform="translate(638.965365 68.043514)scale(0.14 -0.14)">
       <use xlink:href="#ArialMT-33"/>
       <use x="55.615234" xlink:href="#ArialMT-30"/>
       <use x="111.230469" xlink:href="#ArialMT-30"/>
      </g>
     </g>
    </g>
    <g id="text_32">
     <!-- Mean review word count -->
     <defs>
      <path d="M 40.234375 0 
L 40.234375 6.546875 
Q 35.296875 -1.171875 25.734375 -1.171875 
Q 19.53125 -1.171875 14.328125 2.25 
Q 9.125 5.671875 6.265625 11.796875 
Q 3.421875 17.921875 3.421875 25.875 
Q 3.421875 33.640625 6 39.96875 
Q 8.59375 46.296875 13.765625 49.65625 
Q 18.953125 53.03125 25.34375 53.03125 
Q 30.03125 53.03125 33.6875 51.046875 
Q 37.359375 49.078125 39.65625 45.90625 
L 39.65625 71.578125 
L 48.390625 71.578125 
L 48.390625 0 
z
M 12.453125 25.875 
Q 12.453125 15.921875 16.640625 10.984375 
Q 20.84375 6.0625 26.5625 6.0625 
Q 32.328125 6.0625 36.34375 10.765625 
Q 40.375 15.484375 40.375 25.140625 
Q 40.375 35.796875 36.265625 40.765625 
Q 32.171875 45.75 26.171875 45.75 
Q 20.3125 45.75 16.375 40.96875 
Q 12.453125 36.1875 12.453125 25.875 
z
" id="ArialMT-64"/>
      <path d="M 40.578125 0 
L 40.578125 7.625 
Q 34.515625 -1.171875 24.125 -1.171875 
Q 19.53125 -1.171875 15.546875 0.578125 
Q 11.578125 2.34375 9.640625 5 
Q 7.71875 7.671875 6.9375 11.53125 
Q 6.390625 14.109375 6.390625 19.734375 
L 6.390625 51.859375 
L 15.1875 51.859375 
L 15.1875 23.09375 
Q 15.1875 16.21875 15.71875 13.8125 
Q 16.546875 10.359375 19.234375 8.375 
Q 21.921875 6.390625 25.875 6.390625 
Q 29.828125 6.390625 33.296875 8.421875 
Q 36.765625 10.453125 38.203125 13.9375 
Q 39.65625 17.4375 39.65625 24.078125 
L 39.65625 51.859375 
L 48.4375 51.859375 
L 48.4375 0 
z
" id="ArialMT-75"/>
     </defs>
     <g style="fill:#262626;" transform="translate(631.984115 375.112422)rotate(-90)scale(0.15 -0.15)">
      <use xlink:href="#ArialMT-4d"/>
      <use x="83.300781" xlink:href="#ArialMT-65"/>
      <use x="138.916016" xlink:href="#ArialMT-61"/>
      <use x="194.53125" xlink:href="#ArialMT-6e"/>
      <use x="250.146484" xlink:href="#ArialMT-20"/>
      <use x="277.929688" xlink:href="#ArialMT-72"/>
      <use x="311.230469" xlink:href="#ArialMT-65"/>
      <use x="366.845703" xlink:href="#ArialMT-76"/>
      <use x="416.845703" xlink:href="#ArialMT-69"/>
      <use x="439.0625" xlink:href="#ArialMT-65"/>
      <use x="494.677734" xlink:href="#ArialMT-77"/>
      <use x="566.894531" xlink:href="#ArialMT-20"/>
      <use x="594.677734" xlink:href="#ArialMT-77"/>
      <use x="666.894531" xlink:href="#ArialMT-6f"/>
      <use x="722.509766" xlink:href="#ArialMT-72"/>
      <use x="755.810547" xlink:href="#ArialMT-64"/>
      <use x="811.425781" xlink:href="#ArialMT-20"/>
      <use x="839.208984" xlink:href="#ArialMT-63"/>
      <use x="889.208984" xlink:href="#ArialMT-6f"/>
      <use x="944.824219" xlink:href="#ArialMT-75"/>
      <use x="1000.439453" xlink:href="#ArialMT-6e"/>
      <use x="1056.054688" xlink:href="#ArialMT-74"/>
     </g>
    </g>
   </g>
   <g id="patch_17">
    <path clip-path="url(#p29a2830d40)" d="M 731.230469 550.22 
L 793.139635 550.22 
L 793.139635 65.822899 
L 731.230469 65.822899 
z
" style="fill:#4c72b0;"/>
   </g>
   <g id="patch_18">
    <path clip-path="url(#p29a2830d40)" d="M 793.139635 550.22 
L 855.048802 550.22 
L 855.048802 408.759901 
L 793.139635 408.759901 
z
" style="fill:#55a868;"/>
   </g>
   <g id="LineCollection_5">
    <path clip-path="url(#p29a2830d40)" d="M 762.185052 69.787703 
L 762.185052 61.858095 
" style="fill:none;stroke:#262626;stroke-width:1.75;"/>
   </g>
   <g id="LineCollection_6">
    <path clip-path="url(#p29a2830d40)" d="M 824.094219 408.841653 
L 824.094219 408.678149 
" style="fill:none;stroke:#262626;stroke-width:1.75;"/>
   </g>
   <g id="line2d_65">
    <g clip-path="url(#p29a2830d40)">
     <use style="fill:#262626;stroke:#262626;stroke-width:2;" x="762.185052" xlink:href="#me05f5e5788" y="69.787703"/>
    </g>
   </g>
   <g id="line2d_66">
    <g clip-path="url(#p29a2830d40)">
     <use style="fill:#262626;stroke:#262626;stroke-width:2;" x="762.185052" xlink:href="#me05f5e5788" y="61.858095"/>
    </g>
   </g>
   <g id="line2d_67">
    <g clip-path="url(#p29a2830d40)">
     <use style="fill:#262626;stroke:#262626;stroke-width:2;" x="824.094219" xlink:href="#me05f5e5788" y="408.841653"/>
    </g>
   </g>
   <g id="line2d_68">
    <g clip-path="url(#p29a2830d40)">
     <use style="fill:#262626;stroke:#262626;stroke-width:2;" x="824.094219" xlink:href="#me05f5e5788" y="408.678149"/>
    </g>
   </g>
   <g id="patch_19">
    <path d="M 669.321302 550.22 
L 669.321302 37.44 
" style="fill:none;"/>
   </g>
   <g id="patch_20">
    <path d="M 916.957969 550.22 
L 916.957969 37.44 
" style="fill:none;"/>
   </g>
   <g id="patch_21">
    <path d="M 669.321302 550.22 
L 916.957969 550.22 
" style="fill:none;"/>
   </g>
   <g id="patch_22">
    <path d="M 669.321302 37.44 
L 916.957969 37.44 
" style="fill:none;"/>
   </g>
   <g id="text_33">
    <!-- 298.28 -->
    <defs>
     <path d="M 5.46875 16.546875 
L 13.921875 17.328125 
Q 14.984375 11.375 18.015625 8.6875 
Q 21.046875 6 25.78125 6 
Q 29.828125 6 32.875 7.859375 
Q 35.9375 9.71875 37.890625 12.8125 
Q 39.84375 15.921875 41.15625 21.1875 
Q 42.484375 26.46875 42.484375 31.9375 
Q 42.484375 32.515625 42.4375 33.6875 
Q 39.796875 29.5 35.234375 26.875 
Q 30.671875 24.265625 25.34375 24.265625 
Q 16.453125 24.265625 10.296875 30.703125 
Q 4.15625 37.15625 4.15625 47.703125 
Q 4.15625 58.59375 10.578125 65.234375 
Q 17 71.875 26.65625 71.875 
Q 33.640625 71.875 39.421875 68.109375 
Q 45.21875 64.359375 48.21875 57.390625 
Q 51.21875 50.4375 51.21875 37.25 
Q 51.21875 23.53125 48.234375 15.40625 
Q 45.265625 7.28125 39.375 3.03125 
Q 33.5 -1.21875 25.59375 -1.21875 
Q 17.1875 -1.21875 11.859375 3.4375 
Q 6.546875 8.109375 5.46875 16.546875 
z
M 41.453125 48.140625 
Q 41.453125 55.71875 37.421875 60.15625 
Q 33.40625 64.59375 27.734375 64.59375 
Q 21.875 64.59375 17.53125 59.8125 
Q 13.1875 55.03125 13.1875 47.40625 
Q 13.1875 40.578125 17.3125 36.296875 
Q 21.4375 32.03125 27.484375 32.03125 
Q 33.59375 32.03125 37.515625 36.296875 
Q 41.453125 40.578125 41.453125 48.140625 
z
" id="ArialMT-39"/>
    </defs>
    <g style="fill:#262626;" transform="translate(743.612302 308.02145)scale(0.14 -0.14)">
     <use xlink:href="#ArialMT-32"/>
     <use x="55.615234" xlink:href="#ArialMT-39"/>
     <use x="111.230469" xlink:href="#ArialMT-38"/>
     <use x="166.845703" xlink:href="#ArialMT-2e"/>
     <use x="194.628906" xlink:href="#ArialMT-32"/>
     <use x="250.244141" xlink:href="#ArialMT-38"/>
    </g>
   </g>
   <g id="text_34">
    <!-- 87.11 -->
    <g style="fill:#262626;" transform="translate(810.474202 479.489951)scale(0.14 -0.14)">
     <use xlink:href="#ArialMT-38"/>
     <use x="55.615234" xlink:href="#ArialMT-37"/>
     <use x="111.230469" xlink:href="#ArialMT-2e"/>
     <use x="139.013672" xlink:href="#ArialMT-31"/>
     <use x="194.519531" xlink:href="#ArialMT-31"/>
    </g>
   </g>
   <g id="legend_1">
    <g id="patch_23">
     <path d="M 805.739635 60.060937 
L 833.739635 60.060937 
L 833.739635 50.260937 
L 805.739635 50.260937 
z
" style="fill:#4c72b0;"/>
    </g>
    <g id="text_35">
     <!-- Incentivized -->
     <defs>
      <path d="M 9.328125 0 
L 9.328125 71.578125 
L 18.796875 71.578125 
L 18.796875 0 
z
" id="ArialMT-49"/>
      <path d="M 1.953125 0 
L 1.953125 7.125 
L 34.96875 45.015625 
Q 29.34375 44.734375 25.046875 44.734375 
L 3.90625 44.734375 
L 3.90625 51.859375 
L 46.296875 51.859375 
L 46.296875 46.046875 
L 18.21875 13.140625 
L 12.796875 7.125 
Q 18.703125 7.5625 23.875 7.5625 
L 47.859375 7.5625 
L 47.859375 0 
z
" id="ArialMT-7a"/>
     </defs>
     <g style="fill:#262626;" transform="translate(844.939635 60.060937)scale(0.14 -0.14)">
      <use xlink:href="#ArialMT-49"/>
      <use x="27.783203" xlink:href="#ArialMT-6e"/>
      <use x="83.398438" xlink:href="#ArialMT-63"/>
      <use x="133.398438" xlink:href="#ArialMT-65"/>
      <use x="189.013672" xlink:href="#ArialMT-6e"/>
      <use x="244.628906" xlink:href="#ArialMT-74"/>
      <use x="272.412109" xlink:href="#ArialMT-69"/>
      <use x="294.628906" xlink:href="#ArialMT-76"/>
      <use x="344.628906" xlink:href="#ArialMT-69"/>
      <use x="366.845703" xlink:href="#ArialMT-7a"/>
      <use x="416.845703" xlink:href="#ArialMT-65"/>
      <use x="472.460938" xlink:href="#ArialMT-64"/>
     </g>
    </g>
    <g id="patch_24">
     <path d="M 805.739635 79.864375 
L 833.739635 79.864375 
L 833.739635 70.064375 
L 805.739635 70.064375 
z
" style="fill:#55a868;"/>
    </g>
    <g id="text_36">
     <!-- Non incentivized -->
     <defs>
      <path d="M 7.625 0 
L 7.625 71.578125 
L 17.328125 71.578125 
L 54.9375 15.375 
L 54.9375 71.578125 
L 64.015625 71.578125 
L 64.015625 0 
L 54.296875 0 
L 16.703125 56.25 
L 16.703125 0 
z
" id="ArialMT-4e"/>
     </defs>
     <g style="fill:#262626;" transform="translate(844.939635 79.864375)scale(0.14 -0.14)">
      <use xlink:href="#ArialMT-4e"/>
      <use x="72.216797" xlink:href="#ArialMT-6f"/>
      <use x="127.832031" xlink:href="#ArialMT-6e"/>
      <use x="183.447266" xlink:href="#ArialMT-20"/>
      <use x="211.230469" xlink:href="#ArialMT-69"/>
      <use x="233.447266" xlink:href="#ArialMT-6e"/>
      <use x="289.0625" xlink:href="#ArialMT-63"/>
      <use x="339.0625" xlink:href="#ArialMT-65"/>
      <use x="394.677734" xlink:href="#ArialMT-6e"/>
      <use x="450.292969" xlink:href="#ArialMT-74"/>
      <use x="478.076172" xlink:href="#ArialMT-69"/>
      <use x="500.292969" xlink:href="#ArialMT-76"/>
      <use x="550.292969" xlink:href="#ArialMT-69"/>
      <use x="572.509766" xlink:href="#ArialMT-7a"/>
      <use x="622.509766" xlink:href="#ArialMT-65"/>
      <use x="678.125" xlink:href="#ArialMT-64"/>
     </g>
    </g>
   </g>
  </g>
  <g id="text_37">
   <!-- Comparisons between incentivized and non incentivized -->
   <defs>
    <path d="M 58.796875 25.09375 
L 68.265625 22.703125 
Q 65.28125 11.03125 57.546875 4.90625 
Q 49.8125 -1.21875 38.625 -1.21875 
Q 27.046875 -1.21875 19.796875 3.484375 
Q 12.546875 8.203125 8.765625 17.140625 
Q 4.984375 26.078125 4.984375 36.328125 
Q 4.984375 47.515625 9.25 55.828125 
Q 13.53125 64.15625 21.40625 68.46875 
Q 29.296875 72.796875 38.765625 72.796875 
Q 49.515625 72.796875 56.828125 67.328125 
Q 64.15625 61.859375 67.046875 51.953125 
L 57.71875 49.75 
Q 55.21875 57.5625 50.484375 61.125 
Q 45.75 64.703125 38.578125 64.703125 
Q 30.328125 64.703125 24.78125 60.734375 
Q 19.234375 56.78125 16.984375 50.109375 
Q 14.75 43.453125 14.75 36.375 
Q 14.75 27.25 17.40625 20.4375 
Q 20.0625 13.625 25.671875 10.25 
Q 31.296875 6.890625 37.84375 6.890625 
Q 45.796875 6.890625 51.3125 11.46875 
Q 56.84375 16.0625 58.796875 25.09375 
z
" id="ArialMT-43"/>
    <path d="M 6.59375 -19.875 
L 6.59375 51.859375 
L 14.59375 51.859375 
L 14.59375 45.125 
Q 17.4375 49.078125 21 51.046875 
Q 24.5625 53.03125 29.640625 53.03125 
Q 36.28125 53.03125 41.359375 49.609375 
Q 46.4375 46.1875 49.015625 39.953125 
Q 51.609375 33.734375 51.609375 26.3125 
Q 51.609375 18.359375 48.75 11.984375 
Q 45.90625 5.609375 40.453125 2.21875 
Q 35.015625 -1.171875 29 -1.171875 
Q 24.609375 -1.171875 21.109375 0.6875 
Q 17.625 2.546875 15.375 5.375 
L 15.375 -19.875 
z
M 14.546875 25.640625 
Q 14.546875 15.625 18.59375 10.84375 
Q 22.65625 6.0625 28.421875 6.0625 
Q 34.28125 6.0625 38.453125 11.015625 
Q 42.625 15.96875 42.625 26.375 
Q 42.625 36.28125 38.546875 41.203125 
Q 34.46875 46.140625 28.8125 46.140625 
Q 23.1875 46.140625 18.859375 40.890625 
Q 14.546875 35.640625 14.546875 25.640625 
z
" id="ArialMT-70"/>
    <path d="M 14.703125 0 
L 6.546875 0 
L 6.546875 71.578125 
L 15.328125 71.578125 
L 15.328125 46.046875 
Q 20.90625 53.03125 29.546875 53.03125 
Q 34.328125 53.03125 38.59375 51.09375 
Q 42.875 49.171875 45.625 45.671875 
Q 48.390625 42.1875 49.953125 37.25 
Q 51.515625 32.328125 51.515625 26.703125 
Q 51.515625 13.375 44.921875 6.09375 
Q 38.328125 -1.171875 29.109375 -1.171875 
Q 19.921875 -1.171875 14.703125 6.5 
z
M 14.59375 26.3125 
Q 14.59375 17 17.140625 12.84375 
Q 21.296875 6.0625 28.375 6.0625 
Q 34.125 6.0625 38.328125 11.0625 
Q 42.53125 16.0625 42.53125 25.984375 
Q 42.53125 36.140625 38.5 40.96875 
Q 34.46875 45.796875 28.765625 45.796875 
Q 23 45.796875 18.796875 40.796875 
Q 14.59375 35.796875 14.59375 26.3125 
z
" id="ArialMT-62"/>
   </defs>
   <g style="fill:#262626;" transform="translate(238.298906 20.303437)scale(0.18 -0.18)">
    <use xlink:href="#ArialMT-43"/>
    <use x="72.216797" xlink:href="#ArialMT-6f"/>
    <use x="127.832031" xlink:href="#ArialMT-6d"/>
    <use x="211.132812" xlink:href="#ArialMT-70"/>
    <use x="266.748047" xlink:href="#ArialMT-61"/>
    <use x="322.363281" xlink:href="#ArialMT-72"/>
    <use x="355.664062" xlink:href="#ArialMT-69"/>
    <use x="377.880859" xlink:href="#ArialMT-73"/>
    <use x="427.880859" xlink:href="#ArialMT-6f"/>
    <use x="483.496094" xlink:href="#ArialMT-6e"/>
    <use x="539.111328" xlink:href="#ArialMT-73"/>
    <use x="589.111328" xlink:href="#ArialMT-20"/>
    <use x="616.894531" xlink:href="#ArialMT-62"/>
    <use x="672.509766" xlink:href="#ArialMT-65"/>
    <use x="728.125" xlink:href="#ArialMT-74"/>
    <use x="755.908203" xlink:href="#ArialMT-77"/>
    <use x="828.125" xlink:href="#ArialMT-65"/>
    <use x="883.740234" xlink:href="#ArialMT-65"/>
    <use x="939.355469" xlink:href="#ArialMT-6e"/>
    <use x="994.970703" xlink:href="#ArialMT-20"/>
    <use x="1022.753906" xlink:href="#ArialMT-69"/>
    <use x="1044.970703" xlink:href="#ArialMT-6e"/>
    <use x="1100.585938" xlink:href="#ArialMT-63"/>
    <use x="1150.585938" xlink:href="#ArialMT-65"/>
    <use x="1206.201172" xlink:href="#ArialMT-6e"/>
    <use x="1261.816406" xlink:href="#ArialMT-74"/>
    <use x="1289.599609" xlink:href="#ArialMT-69"/>
    <use x="1311.816406" xlink:href="#ArialMT-76"/>
    <use x="1361.816406" xlink:href="#ArialMT-69"/>
    <use x="1384.033203" xlink:href="#ArialMT-7a"/>
    <use x="1434.033203" xlink:href="#ArialMT-65"/>
    <use x="1489.648438" xlink:href="#ArialMT-64"/>
    <use x="1545.263672" xlink:href="#ArialMT-20"/>
    <use x="1573.046875" xlink:href="#ArialMT-61"/>
    <use x="1628.662109" xlink:href="#ArialMT-6e"/>
    <use x="1684.277344" xlink:href="#ArialMT-64"/>
    <use x="1739.892578" xlink:href="#ArialMT-20"/>
    <use x="1767.675781" xlink:href="#ArialMT-6e"/>
    <use x="1823.291016" xlink:href="#ArialMT-6f"/>
    <use x="1878.90625" xlink:href="#ArialMT-6e"/>
    <use x="1934.521484" xlink:href="#ArialMT-20"/>
    <use x="1962.304688" xlink:href="#ArialMT-69"/>
    <use x="1984.521484" xlink:href="#ArialMT-6e"/>
    <use x="2040.136719" xlink:href="#ArialMT-63"/>
    <use x="2090.136719" xlink:href="#ArialMT-65"/>
    <use x="2145.751953" xlink:href="#ArialMT-6e"/>
    <use x="2201.367188" xlink:href="#ArialMT-74"/>
    <use x="2229.150391" xlink:href="#ArialMT-69"/>
    <use x="2251.367188" xlink:href="#ArialMT-76"/>
    <use x="2301.367188" xlink:href="#ArialMT-69"/>
    <use x="2323.583984" xlink:href="#ArialMT-7a"/>
    <use x="2373.583984" xlink:href="#ArialMT-65"/>
    <use x="2429.199219" xlink:href="#ArialMT-64"/>
   </g>
  </g>
 </g>
 <defs>
  <clipPath id="p6a0732dcb0">
   <rect height="512.78" width="247.636667" x="51.377969" y="37.44"/>
  </clipPath>
  <clipPath id="p21f48081a5">
   <rect height="512.78" width="247.636667" x="360.349635" y="37.44"/>
  </clipPath>
  <clipPath id="p29a2830d40">
   <rect height="512.78" width="247.636667" x="669.321302" y="37.44"/>
  </clipPath>
 </defs>
</svg>
